<svg width="640" height="480" viewBox="0 0 640 480" fill="none" xmlns="http://www.w3.org/2000/svg">
  <rect width="640" height="480" rx="30" fill="#081321"/>
  <rect x="90" y="120" width="460" height="230" rx="24" fill="#0F2136" stroke="#274A70" stroke-width="3"/>
  <path d="M196 160C196 124.654 224.654 96 260 96H380C415.346 96 444 124.654 444 160V180H412V160C412 142.327 397.673 128 380 128H260C242.327 128 228 142.327 228 160V180H196V160Z" fill="#163B63"/>
  <circle cx="486" cy="110" r="44" fill="#E6FD63"/>
  <path d="M228 193C189.34 231.66 189.34 294.34 228 333C266.66 371.66 329.34 371.66 368 333C406.66 294.34 406.66 231.66 368 193C329.34 154.34 266.66 154.34 228 193Z" stroke="#9AEFFF" stroke-width="14"/>
  <path d="M338 304L408 374" stroke="#9AEFFF" stroke-width="14" stroke-linecap="round"/>
  <rect x="393" y="355" width="82" height="18" rx="9" transform="rotate(45 393 355)" fill="#1FD4F4"/>
  <circle cx="220" cy="396" r="10" fill="#1FD4F4" fill-opacity="0.4"/>
  <circle cx="262" cy="396" r="10" fill="#1FD4F4" fill-opacity="0.25"/>
  <circle cx="304" cy="396" r="10" fill="#1FD4F4" fill-opacity="0.15"/>
</svg>
