<svg width="260" height="180" viewBox="0 0 260 180" fill="none" xmlns="http://www.w3.org/2000/svg">
  <rect width="260" height="180" rx="24" fill="#0C1730"/>
  <path d="M64 38C41.9086 60.0914 41.9086 95.9086 64 118C86.0914 140.091 121.909 140.091 144 118C166.091 95.9086 166.091 60.0914 144 38C121.909 15.9086 86.0914 15.9086 64 38Z" stroke="#B6F6FF" stroke-width="10"/>
  <path d="M127 102L198 173" stroke="#77E9FF" stroke-width="10" stroke-linecap="round"/>
  <rect x="188" y="162" width="56" height="12" rx="6" transform="rotate(45 188 162)" fill="#1FD4F4"/>
  <path d="M76 48L134 106" stroke="#77E9FF" stroke-opacity="0.4" stroke-width="2"/>
  <path d="M86 38L144 96" stroke="#77E9FF" stroke-opacity="0.4" stroke-width="2"/>
  <path d="M66 58L124 116" stroke="#77E9FF" stroke-opacity="0.4" stroke-width="2"/>
  <path d="M68 104L126 46" stroke="#77E9FF" stroke-opacity="0.4" stroke-width="2"/>
  <path d="M78 114L136 56" stroke="#77E9FF" stroke-opacity="0.4" stroke-width="2"/>
  <path d="M88 124L146 66" stroke="#77E9FF" stroke-opacity="0.4" stroke-width="2"/>
</svg>
