<svg width="760" height="540" viewBox="0 0 760 540" fill="none" xmlns="http://www.w3.org/2000/svg">
<defs>
  <linearGradient id="bg" x1="92" y1="76" x2="610" y2="470" gradientUnits="userSpaceOnUse">
    <stop stop-color="#EFF7FF"/>
    <stop offset="1" stop-color="#DCEEFF"/>
  </linearGradient>
  <linearGradient id="frame" x1="244" y1="76" x2="510" y2="340" gradientUnits="userSpaceOnUse">
    <stop stop-color="#C9F4FF"/>
    <stop offset="1" stop-color="#7AD4F6"/>
  </linearGradient>
  <linearGradient id="handle" x1="474" y1="334" x2="644" y2="504" gradientUnits="userSpaceOnUse">
    <stop stop-color="#52C2E8"/>
    <stop offset="1" stop-color="#294B7A"/>
  </linearGradient>
  <filter id="shadow" x="95" y="38" width="570" height="460" filterUnits="userSpaceOnUse" color-interpolation-filters="sRGB">
    <feDropShadow dx="0" dy="28" stdDeviation="22" flood-color="#6D92C0" flood-opacity="0.18"/>
  </filter>
</defs>
<rect x="72" y="64" width="616" height="412" rx="44" fill="url(#bg)"/>
<g filter="url(#shadow)">
  <ellipse cx="348" cy="202" rx="132" ry="152" transform="rotate(-18 348 202)" fill="#F9FDFF" stroke="url(#frame)" stroke-width="18"/>
  <ellipse cx="348" cy="202" rx="108" ry="128" transform="rotate(-18 348 202)" fill="#102548" fill-opacity="0.94"/>
  <path d="M296 118L437 326" stroke="#7BD8F4" stroke-width="3.2" opacity="0.9"/>
  <path d="M274 135L415 342" stroke="#7BD8F4" stroke-width="3.2" opacity="0.8"/>
  <path d="M320 101L460 309" stroke="#7BD8F4" stroke-width="3.2" opacity="0.8"/>
  <path d="M346 95L486 301" stroke="#7BD8F4" stroke-width="3.2" opacity="0.76"/>
  <path d="M384 103L520 291" stroke="#7BD8F4" stroke-width="3.2" opacity="0.76"/>
  <path d="M247 170L503 230" stroke="#7BD8F4" stroke-width="3.2" opacity="0.8"/>
  <path d="M236 202L496 262" stroke="#7BD8F4" stroke-width="3.2" opacity="0.8"/>
  <path d="M244 236L485 294" stroke="#7BD8F4" stroke-width="3.2" opacity="0.78"/>
  <path d="M262 270L468 320" stroke="#7BD8F4" stroke-width="3.2" opacity="0.72"/>
  <path d="M437 315L518 396" stroke="#B8F4FF" stroke-width="13" stroke-linecap="round"/>
  <rect x="508" y="382" width="153" height="26" rx="13" transform="rotate(45 508 382)" fill="url(#handle)"/>
  <rect x="587" y="460" width="59" height="28" rx="14" transform="rotate(45 587 460)" fill="#11264A"/>
  <rect x="570" y="442" width="28" height="18" rx="9" transform="rotate(45 570 442)" fill="#D9F9FF"/>
</g>
<circle cx="574" cy="160" r="58" fill="#A7D1F1" fill-opacity="0.32"/>
<circle cx="610" cy="192" r="18" fill="#D7FBFF"/>
</svg>